<?xml version="1.0" encoding="utf-8"?>
<!-- Generator: Adobe Illustrator 25.0.0, SVG Export Plug-In . SVG Version: 6.00 Build 0)  -->
<svg version="1.1" id="Layer_1" xmlns="http://www.w3.org/2000/svg" xmlns:xlink="http://www.w3.org/1999/xlink" x="0px" y="0px"
	 viewBox="0 0 1181.46 217.46" style="enable-background:new 0 0 1181.46 217.46;" xml:space="preserve">
<style type="text/css">
	.st0{fill:#263A79;}
	.st1{fill:#FFFFFF;}
	.st2{fill:#96D8ED;}
	.st3{fill:#0B0F12;}
	.st4{fill:#FED700;}
</style>
<g>
	<path class="st0" d="M348.33,108.73C277.47-36.24,70.86-36.24,0,108.73l0,0l0,0C70.86,253.7,277.47,253.7,348.33,108.73
		L348.33,108.73L348.33,108.73z"/>
	<circle class="st1" cx="174.17" cy="108.73" r="92.51"/>
	<circle class="st0" cx="174.17" cy="108.73" r="63.99"/>
	<circle class="st2" cx="174.17" cy="108.73" r="48.51"/>
	<circle class="st3" cx="174.17" cy="108.73" r="22.48"/>
</g>
<g>
	<path class="st4" d="M449.29,101.83h-34.64l-9.26,25.22h-28.57l40.55-109.98h29.05l40.39,109.98h-28.25L449.29,101.83z
		 M421.84,78.85h20.59l-10.69-36.24L421.84,78.85z"/>
	<path class="st4" d="M587.07,17.07v109.98h-23.31l-33.68-60.02v60.02h-26.66V17.07h24.1l32.88,59.22V17.07H587.07z"/>
	<path class="st4" d="M676.23,101.83h-34.64l-9.26,25.22h-28.57l40.55-109.98h29.05l40.39,109.98h-28.25L676.23,101.83z
		 M648.78,78.85h20.59l-10.7-36.24L648.78,78.85z"/>
	<path class="st4" d="M711.3,40.38V17.07h83.48v23.31h-28.41v86.68h-26.66V40.38H711.3z"/>
	<path class="st4" d="M862.88,15.63c31.29,0,56.19,25.22,56.19,56.51c0,30.97-24.9,56.35-56.19,56.35
		c-30.97,0-56.03-25.38-56.03-56.35C806.85,40.86,831.92,15.63,862.88,15.63z M862.88,101.67c16.28,0,29.37-13.09,29.37-29.53
		s-13.09-29.69-29.37-29.69c-16.28,0-29.05,13.25-29.05,29.69S846.6,101.67,862.88,101.67z"/>
	<path class="st4" d="M942.81,127.05V17.07h26.98v86.68h39.59v23.31H942.81z"/>
	<path class="st4" d="M1028.4,17.07h26.66v109.98h-26.66V17.07z"/>
	<path class="st4" d="M1143.95,101.83h-34.64l-9.26,25.22h-28.57l40.55-109.98h29.05l40.39,109.98h-28.25L1143.95,101.83z
		 M1116.5,78.85h20.59l-10.69-36.24L1116.5,78.85z"/>
	<path d="M427.08,201.82l-3.8-31.17l-12.78,26.44h-5.49l-12.91-26.44l-3.8,31.17h-6.36l5.24-42.96h5.74l14.78,30.92l14.78-30.92
		h5.74l5.24,42.96H427.08z"/>
	<path d="M470.92,195.96v5.86h-26.31v-42.96h25.75v5.86h-19.39v13.03h16.9v5.92h-16.9v12.28H470.92z"/>
	<path d="M481.63,158.86h16.71c12.28,0,19.45,9.35,19.45,21.57c0,12.16-7.17,21.39-19.45,21.39h-16.71V158.86z M498.34,195.96
		c8.6,0,13.03-6.8,13.03-15.52c0-8.73-4.43-15.71-13.03-15.71h-10.29v31.24H498.34z"/>
	<path d="M528.88,158.86h6.42v42.96h-6.42V158.86z"/>
	<path d="M575.48,164.73H562.7v37.1h-6.42v-37.1H543.5v-5.86h31.98V164.73z"/>
	<path d="M610.07,195.96v5.86h-26.31v-42.96h25.75v5.86h-19.39v13.03h16.9v5.92h-16.9v12.28H610.07z"/>
	<path d="M632.12,185.8h-4.93v16.02h-6.42v-42.96h16.4c9.41,0,13.22,6.8,13.22,13.59c0,6.17-3.12,12.22-11.04,13.22l11.41,16.15
		h-7.67L632.12,185.8z M627.2,180.19h8.42c5.92,0,8.35-3.18,8.35-7.73c0-4.49-2.68-7.73-6.86-7.73h-9.91V180.19z"/>
	<path d="M672.77,185.8h-4.93v16.02h-6.42v-42.96h16.4c9.41,0,13.22,6.8,13.22,13.59c0,6.17-3.12,12.22-11.04,13.22l11.41,16.15
		h-7.67L672.77,185.8z M667.85,180.19h8.42c5.92,0,8.35-3.18,8.35-7.73c0-4.49-2.68-7.73-6.86-7.73h-9.91V180.19z"/>
	<path d="M726.48,190.97h-17.83l-3.99,10.85h-6.73l16.27-42.96h6.86l16.21,42.96h-6.73L726.48,190.97z M724.42,185.36l-6.86-18.52
		l-6.86,18.52H724.42z"/>
	<path d="M776.24,158.86v42.96h-6.05l-18.77-31.3v31.3h-6.42v-42.96h6.23l18.58,31.05v-31.05H776.24z"/>
	<path d="M815.99,195.96v5.86h-26.31v-42.96h25.75v5.86h-19.39v13.03h16.9v5.92h-16.9v12.28H815.99z"/>
	<path d="M851.1,190.97h-17.83l-3.99,10.85h-6.73l16.27-42.96h6.86l16.21,42.96h-6.73L851.1,190.97z M849.05,185.36l-6.86-18.52
		l-6.86,18.52H849.05z"/>
	<path d="M900.87,158.86v42.96h-6.05l-18.77-31.3v31.3h-6.42v-42.96h6.23l18.58,31.05v-31.05H900.87z"/>
	<path d="M976.93,201.82l-3.8-31.17l-12.78,26.44h-5.49l-12.91-26.44l-3.8,31.17h-6.36l5.24-42.96h5.74l14.78,30.92l14.78-30.92
		h5.74l5.24,42.96H976.93z"/>
	<path d="M1018.59,190.97h-17.83l-3.99,10.85h-6.73l16.27-42.96h6.86l16.21,42.96h-6.73L1018.59,190.97z M1016.53,185.36
		l-6.86-18.52l-6.86,18.52H1016.53z"/>
	<path d="M1048.46,185.8h-4.93v16.02h-6.42v-42.96h16.4c9.41,0,13.22,6.8,13.22,13.59c0,6.17-3.12,12.22-11.04,13.22l11.41,16.15
		h-7.67L1048.46,185.8z M1043.54,180.19h8.42c5.92,0,8.35-3.18,8.35-7.73c0-4.49-2.68-7.73-6.86-7.73h-9.91V180.19z"/>
	<path d="M1100.4,201.82l-16.27-17.64v17.64h-6.36v-42.96h6.36v17.83l13.53-17.83h7.86l-16.46,21.51l19.95,21.45H1100.4z"/>
	<path d="M1142.69,195.96v5.86h-26.31v-42.96h25.75v5.86h-19.39v13.03h16.9v5.92h-16.9v12.28H1142.69z"/>
	<path d="M1181.46,164.73h-12.78v37.1h-6.42v-37.1h-12.78v-5.86h31.98V164.73z"/>
</g>
</svg>
