<?xml version="1.0" encoding="UTF-8"?>
<svg xmlns="http://www.w3.org/2000/svg" xmlns:xlink="http://www.w3.org/1999/xlink" width="119.990551pt" height="163.587402pt" viewBox="0 0 119.990551 163.587402" version="1.1">
<defs>
<clipPath id="clip1">
  <path d="M 0 0 L 119.960938 0 L 119.960938 163.558594 L 0 163.558594 Z M 0 0 "/>
</clipPath>
</defs>
<g id="surface1">
<g clip-path="url(#clip1)" clip-rule="nonzero">
<path style=" stroke:none;fill-rule:evenodd;fill:rgb(100%,100%,100%);fill-opacity:1;" d="M 0 0 L 119.960938 0 L 119.960938 163.558594 L 0 163.558594 Z M 0 0 "/>
<path style=" stroke:none;fill-rule:evenodd;fill:rgb(0%,0%,0%);fill-opacity:1;" d="M 59.980469 163.558594 L 0 163.558594 L 0 0 L 119.960938 0 L 119.960938 163.558594 Z M 59.980469 163.558594 "/>
</g>
<path style=" stroke:none;fill-rule:evenodd;fill:rgb(100%,100%,100%);fill-opacity:1;" d="M 21.144531 74.382812 L 36.738281 74.382812 C 47.765625 74.550781 54.199219 71.6875 54.199219 61.710938 C 54.199219 50.769531 45.355469 49.039062 33.363281 49.039062 L 21.230469 49.039062 C 21.144531 48.984375 21.144531 74.382812 21.144531 74.382812 Z M 36.59375 43.65625 C 44.078125 43.65625 51.589844 40.648438 51.589844 31.863281 C 51.589844 22.421875 43.9375 20.695312 36.28125 20.550781 L 21.144531 20.550781 L 21.144531 43.65625 Z M 15.308594 79.710938 L 15.308594 15.308594 L 39.882812 15.449219 C 49.40625 15.449219 57.742188 21.144531 57.742188 31.410156 C 57.742188 38.464844 52.554688 44.390625 45.894531 45.894531 L 45.894531 46.035156 C 54.59375 47.394531 60.433594 53.09375 60.433594 62.25 C 60.433594 70.722656 55.246094 79.425781 41.300781 79.425781 L 15.222656 79.425781 L 15.222656 79.710938 Z M 15.308594 79.710938 "/>
<path style=" stroke:none;fill-rule:evenodd;fill:rgb(100%,100%,100%);fill-opacity:1;" d="M 63.582031 79.710938 L 63.582031 15.308594 L 69.363281 15.308594 L 69.363281 74.382812 L 104.511719 74.382812 L 104.511719 79.710938 Z M 63.582031 79.710938 "/>
<path style=" stroke:none;fill-rule:evenodd;fill:rgb(100%,100%,100%);fill-opacity:1;" d="M 35.914062 144.425781 C 49.71875 144.425781 54.199219 130.253906 54.199219 116.023438 C 54.199219 101.765625 49.71875 87.589844 35.914062 87.589844 C 22.109375 87.589844 17.632812 101.847656 17.632812 116.023438 C 17.632812 130.195312 22.109375 144.425781 35.914062 144.425781 Z M 35.914062 149.925781 C 19.957031 149.925781 11.765625 136.402344 11.765625 116.164062 C 11.765625 95.925781 19.957031 82.402344 35.914062 82.402344 C 51.875 82.347656 60.066406 95.839844 60.066406 116.023438 C 60.066406 136.175781 51.875 149.925781 35.914062 149.925781 Z M 35.914062 149.925781 "/>
<path style=" stroke:none;fill-rule:evenodd;fill:rgb(100%,100%,100%);fill-opacity:1;" d="M 100.6875 98.84375 C 99.722656 90.878906 93.714844 87.675781 87.195312 87.675781 C 72.199219 87.675781 68.542969 102.671875 68.542969 116.078125 C 68.542969 129.375 72.199219 144.511719 87.195312 144.511719 C 93.714844 144.511719 100.007812 140.996094 101.367188 132.886719 L 107.207031 132.886719 C 105.5625 143.832031 96.574219 149.980469 87.109375 149.980469 C 69.363281 149.980469 62.445312 134.164062 62.445312 116.25 C 62.445312 98.476562 69.421875 82.488281 87.109375 82.488281 C 96.632812 82.488281 105.789062 87.449219 106.609375 98.988281 L 100.628906 98.988281 L 100.628906 98.84375 Z M 100.6875 98.84375 "/>
</g>
</svg>
