<?xml version="1.0" encoding="utf-8"?>
<svg id="Layer_1" data-name="Layer 1" xmlns="http://www.w3.org/2000/svg" viewBox="0 0 864 864">
  <g>
    <circle id="fullLogo" cx="432" cy="432" r="432" style="fill: #f1ae1d"/>
    <path id="fullLogo-2" data-name="fullLogo" d="M431.987,843.75A411.8576,411.8576,0,0,1,271.7154,52.61,411.8556,411.8556,0,0,1,592.2631,811.3913,409.1979,409.1979,0,0,1,431.987,843.75Zm0-816.3c-223.069,0-404.5491,181.4766-404.5491,404.5412,0,223.0743,181.48,404.5588,404.5491,404.5588,223.0836,0,404.5751-181.4845,404.5751-404.5588C836.5621,208.9266,655.0706,27.45,431.987,27.45Z"/>
    <path id="fullLogo-3" data-name="fullLogo" d="M783.5272,322.2336c-5.9267-1.1894-12.324,2.03-14.3853,7.6023-1.357,3.6681-2.2339,7.5156-3.2537,11.3021A121.5158,121.5158,0,0,1,748.6964,378.4,85.9013,85.9013,0,0,1,730.83,397.838a41.1151,41.1151,0,0,1-12.8577,7c-6.8243,2.18-12.6925-.3561-16.0979-6.7084-2.8663-5.3451-3.72-11.1061-3.9574-17.0471-.4971-12.3963.6811-12.112,10.1206-16.9635,2.1827-1.1222,4.4215-2.1492,6.5425-3.3772,10.2624-5.9445,19.6014-13.0316,27.32-22.1355a76.3038,76.3038,0,0,0,16.0788-31.1192,56.9665,56.9665,0,0,0,1.489-18.9965,28.3554,28.3554,0,0,0-4.1025-12.4728A22.1617,22.1617,0,0,0,732.76,265.4725a33.1754,33.1754,0,0,0-15.9,7.2011c-7.3929,5.8733-13.2638,13.0968-18.3544,20.9573a172.2227,172.2227,0,0,0-24.4432,59.8779,13.3907,13.3907,0,0,0-.601,1.4889c-1.2258,3.7228-1.9883,7.5995-2.9241,11.4152A174.88,174.88,0,0,1,658.9592,399.78c-2.95,6.2222-6.1188,12.3341-10.5333,17.68-.9079,1.1-4.5316,5.8089-6.3584-1.1735a49.2056,49.2056,0,0,1-1.0912-17.579c.867-8.2978,1.8158-16.5955,3.0641-24.8432,1.5471-10.21,3.0562-20.4042,3.2214-30.7569a113.6052,113.6052,0,0,0-2.5873-25.1161,106.2338,106.2338,0,0,0-4.554-10.5969c-6.0467-11.1237-17.0778-15.1475-28.8174-10.849a33.2965,33.2965,0,0,0-12.1087,8.1934c-2.7633,2.7832-5.2585,5.83-7.92,8.7167a5.6425,5.6425,0,0,1-1.205.9943,9.5481,9.5481,0,0,0-1.38-3.1737c-3.8972-5.7683-9.2458-7.4031-15.8556-6.4521-7.3053,1.0507-10.26,9.8334-12.9635,15.5189-3.7426,7.8688-7.5834,15.6977-11.8349,23.3064-2.2,3.9375-4.5039,7.8229-7.0137,11.5719-.6591.9846-1.3306,1.961-2.023,2.9225-.1861.2589-.3614.4909-.513.686.11-.1294.2353-.2757.3889-.453-.142.1641-.2811.3295-.4215.4943-.44.5628-.6486.7726-.2331.2734-1.0037,1.1841-1.9883,2.375-3.0929,3.4774A66.424,66.424,0,0,1,521.2,373.3932c-2.4937,1.5205-5.0583,2.9263-7.6909,4.1919-.6027.29-1.9083.8719-2.0131.9367-.8811.3505-1.7673.6889-2.66,1.0075-1.4146.5049-2.841.94-4.2741,1.3456,20.3335-23.4391,36.8727-49.8208,43.57-80.2173a163.89,163.89,0,0,0,4.1-36.4421c-.0775-8.9556-.75-18.6208-4.1154-27.0119-4.3715-10.898-13.114-19.408-25.7808-16.6513-10.1083,2.2-17.0578,12.3912-21.678,20.834-8.3263,15.2148-13.7863,32.1864-18.6471,48.7655-7.762,26.475-13.3194,53.4544-18.8626,80.4577q-1.6374,7.9761-3.3467,15.9383-4.5224,4.3635-9.1081,8.6577c-5.0289,4.6964-10.123,9.326-15.35,13.8014-.7084.6067-1.4229,1.2061-2.1368,1.8064.2364-3.6108.3546-7.2376.3287-10.8831a168.8038,168.8038,0,0,0-1.737-20.511,38.2389,38.2389,0,0,0-6.3951-16.3424c-5.9251-8.8418-15.6043-12.146-25.8027-9.1323-5.8493,1.73-10.4788,5.2717-14.6722,9.4958a75.1491,75.1491,0,0,0-12.8723,17.8853,109.3968,109.3968,0,0,1-9.3019,13.108c-.7438.7481-1.62,1.4506-2.3517,2.2161l-.0486.0473c-3.8037,3.2326-7.0363.15-7.9558-.4-.3716-.338-.775-.6539-1.14-.9914-1.0661-.9857-2.0747-2.0336-3.0417-3.116-.3751-.42-1.6035-1.9725-1.9516-2.377.5689.8082.9839,1.4.26.4107-.3949-.54-.4221-.5988-.26-.4107-.4265-.6053-.9389-1.3317-1.1252-1.6066q-1.9812-2.9228-3.7053-6.01a69.3174,69.3174,0,0,1-3.1429-6.186c-2.1105-4.8408-8.7164-7.0813-13.4513-6.4452-5.69.7646-9.1768,4.5233-11.2234,9.67-6.0255,15.1555-11.8988,30.3269-16.8741,45.8337l.08-11.7479q.0559-8.2737.1123-16.547c.1041-15.3868-22.1889-18.1149-26.518-3.5888-6.75,22.65-18.2663,84.1439-37.1118,117.7757-3.1148,5.5586-5.6632,11.48-10.3746,15.9684a2.929,2.929,0,0,1-4.6716-1.1154c-1.7264-5.2037-1.7484-10.6242-1.6556-16.03a175.4333,175.4333,0,0,1,3.1689-27.7858q2.9679-16.6788,5.48-33.44a73.0159,73.0159,0,0,0,.3142-20.5686c-1.01-7.48-3.3829-14.2673-8.978-19.7007-4.2566-4.1337-5.2866-5.1987-.94-11.2693,4.0042-5.5921,8.1927-11.0593,12.01-16.7768,5.9959-8.9849,12.0794-17.9429,17.4871-27.281,3.6719-6.3378,6.4461-13.23,9.2316-20.0341a41.8436,41.8436,0,0,0,2.317-10.0017,14.1912,14.1912,0,0,0-.5884-5.78,12.4646,12.4646,0,0,0-10.9676-8.4942c-5.3359-.2022-9.6142,1.8121-12.3232,6.5171a24.5838,24.5838,0,0,0-2.1918,5.4444,99.5618,99.5618,0,0,1-13.3868,27.7782c-7.3817,11.0156-15.1027,21.8037-22.7421,32.645a17.0882,17.0882,0,0,1-3.1421,2.9956c-.3072.2566-1.8455,1.277-2.3722-.7829a13.7757,13.7757,0,0,1,.0169-5.7971c2.2041-12.0794,4.5842-24.1288,6.8212-36.2043A111.7207,111.7207,0,0,0,197.5039,329.6a12.3033,12.3033,0,0,0-5.193-11.5684,12.53,12.53,0,0,0-13.9221-.769c-3.01,1.6464-5.8359,3.6334-8.7378,5.4758a21.5859,21.5859,0,0,1-14.0028,3.56c-2.4447-.2377-4.8986-.3654-7.3487-.5361a47.5332,47.5332,0,0,0-26.9078,6.196,89.6452,89.6452,0,0,0-14.5718,9.9161,104.4883,104.4883,0,0,0-33.5023,52.6634A102.6321,102.6321,0,0,0,70.49,411.94a43.5446,43.5446,0,0,0,3.0992,20.22c5.5708,14.1922,19.3768,21.7978,34.3749,18.9794a13.2755,13.2755,0,0,0,10.7115-12.37c.176-6.2378-3.573-11.1722-9.9479-12.8545-2.3575-.6229-4.8744-.6943-7.1855-1.43a6.0846,6.0846,0,0,1-3.787-4.2117c-1.747-5.3743-.9831-10.756.3252-16a81.4992,81.4992,0,0,1,27.8756-44.0455,42.5213,42.5213,0,0,1,8.7113-5.4607,32.5652,32.5652,0,0,1,8.3927-2.4543c10.99-1.8826,17.8991-.1907,20.89,3.5174,1.829,2.2678.9826,5.9715.4421,8.8271q-12.1773,64.44-24.5177,128.8485c-1.1108,5.7766-2.6192,11.5-4.3016,17.14a127.9844,127.9844,0,0,1-15.3648,33.3556c-5.1476,7.9115-10.9842,15.1179-19.9092,19.111a17.1231,17.1231,0,0,0-2.5469,1.4756,12.7021,12.7021,0,0,0-5.0834,14.2344,12.568,12.568,0,0,0,13.6035,8.9044,28.72,28.72,0,0,0,7.0469-1.9319c7.4144-3.0564,13.3945-8.1224,18.7791-13.948a117.9284,117.9284,0,0,0,18.7754-28.0819c7.0289-14.1772,11.6565-29.1412,14.9595-44.5893,1.9489-9.1167,4.21-18.184,6.79-27.1415A120.6553,120.6553,0,0,1,183.3647,446.23a143.801,143.801,0,0,1,8.0884-12.2775,7.3232,7.3232,0,0,1,3.3829-2.7775c1.0253-.4133,2.9993.4873,3.7483,1.2922,1.29,1.3876,1.1679,4.883.857,7.2068-1.5614,11.678-3.2507,23.3444-5.2265,34.957-1.9782,11.6321-3.9236,23.2389-4.133,35.0815a96.18,96.18,0,0,0,1.6583,20.11c1.6154,7.1372,3.2337,12.2915,6.0178,16.9941,6.3264,10.6943,17.6419,14.5327,29.2351,9.9963a34.066,34.066,0,0,0,9.98-6.152,66.6079,66.6079,0,0,0,12.3539-14.56,170.9307,170.9307,0,0,0,19.969-45.2281q-.0749,11.0524-.15,22.1054l-.112,16.5469c-.1024,15.0915,22.748,18.5061,26.5177,3.5888q6.1406-24.3,12.5637-48.5292c5.8491-22.1067,11.3135-44.5316,19.1784-66.03q.7215-1.9725,1.4569-3.94a1.8058,1.8058,0,0,1,2.9466-.6593q.09.0863.1813.1719c6.3642,6.0067,14.0128,10.3432,22.8206,11.087a210.1241,210.1241,0,0,0-7.153,52.2488c-.0771,6.3373,1.0734,12.69,1.4339,16.6144,1.9965,7.632,3.6275,12.781,6.62,17.3654,6.73,10.3039,18.64,13.5224,29.7119,8.1637,4.9581-2.4011,15.338-11.676,27.038-35.076a255.4694,255.4694,0,0,0,14.453-36.1929,40.5249,40.5249,0,0,0,7.0145-3.2854,114.8316,114.8316,0,0,0,15.78-11.3889q-10.4253,48.51-20.8507,97.0207c-3.889,18.0954-8.449,36.1934-11.4878,54.4619-2.281,13.712-6.207,31.4613,1.9762,43.9783,7.9421,12.1478,22.1992,16.4641,36.0359,14.32,15.287-2.3686,24.2042-14.2492,32.6986-25.94a261.62,261.62,0,0,0,21.9786-35.7895,226.1616,226.1616,0,0,0,24.1661-85.1564,218.0306,218.0306,0,0,0-1.9823-47.0722,123.6708,123.6708,0,0,0-12.94-40.4425c-.4667-.9028-.9573-1.7964-1.4374-2.6942a102.6362,102.6362,0,0,0,25.77-14.2853A93.574,93.574,0,0,0,566.9891,366.75c.0237-.0369.0461-.0747.0694-.1118-.5972,4.4541-1.2878,8.8969-2.041,13.3293l.0072-.0062-.08.4373q-.646,3.78-1.3412,7.5489c-.1182.6354-.2393,1.27-.3577,1.9059-.0218.0584-.0466.1145-.0686.1727L551.2162,455.18c-.0753.7842-.1467,1.5686-.1837,2.3535a12.6034,12.6034,0,0,0,10.2193,12.6622c5.9952,1.159,12.3985-2.08,14.3585-7.6762a81.0031,81.0031,0,0,0,2.8977-11.3932c3.7266-19.2977,7.1677-38.6506,11.0866-57.9092,2.054-10.0958,4.5356-20.1373,7.4491-30.0168a123.0253,123.0253,0,0,1,13.7881-30.8736c1.4924-2.37,4-6.0007,6.0071-5.583,2.2713.4706,3.2713,5.4279,3.5752,8.5607,1.0544,10.85-.5,21.5666-2.1465,32.2647-1.1967,7.7656-2.4177,15.5336-3.3408,23.3336a110.0565,110.0565,0,0,0,.4615,27.9306,52.4857,52.4857,0,0,0,6.46,19.462c6.8029,11.7238,19.7628,15.4356,31.7825,9.2543a34.1331,34.1331,0,0,0,10.503-7.9827,120.6657,120.6657,0,0,0,10.7349-13.9946q3.2847-5.2274,6.07-10.6488c8.3824,12.966,23.54,20.8639,43.5843,15.56a52.7546,52.7546,0,0,0,6.8906-2.5677c11.0914-4.6677,20.1593-12.13,28.1112-20.9558,16.7939-18.6368,27.6291-40.3961,33.264-64.7815a35.7165,35.7165,0,0,0,.9-7.273A12.5866,12.5866,0,0,0,783.5272,322.2336ZM711.21,325.9312c3.3369-10.2292,8.4526-20.107,16.6939-27.0967,3.0874-2.6176,5.07-1.6844,3.87,3.0584-2.7283,10.787-8.098,19.9059-17.1248,26.26C712.4213,329.7223,709.7736,330.3354,711.21,325.9312ZM385.4466,483.1464c-1.2988,1.9751-4.9335,5.7793-6.67,6.7025-2.6051,1.2011-3.2554-1.3394-3.3556-1.76a51.5467,51.5467,0,0,1,.0294-25.6263,186.4726,186.4726,0,0,1,6.5821-24.6759,40.8443,40.8443,0,0,0,17.4239,9.7459c.2276.0611.4551.1044.6827.162C396.7324,463.0979,392.0624,473.0864,385.4466,483.1464ZM395.25,415.23c-3.457-2.8808-9-7.2,4.4578-24.552.5834-.7521,3.4054-4.2263,4.6371-4.0632,1.4283.1911,1.9128,3.3895,1.8917,4.739q-.0274,1.7832-.08,3.564a59.9894,59.9894,0,0,1-.1674,6.22c-.5049,7.171-1.0648,13.6457-1.6913,19.5444C403.8847,420.4876,400.65,419.73,395.25,415.23ZM513.7366,282.7178c1.3175-3.95,2.7022-7.8777,4.1862-11.7679.45-1.1793,3.1317-7.374,4.8189-11.0756a.6814.6814,0,0,1,1.2993.2529q.0285.588.0491,1.1765a127.4207,127.4207,0,0,1-.3533,14.3367c-.2028,2.5895-.62,5.1657-.8115,7.7521.4054-5.4966.0758-.6565-.161.8181q-.348,2.1674-.7563,4.3246a155.3188,155.3188,0,0,1-4.0188,16.3807c-.5478,1.7986-1.1274,3.5877-1.7526,5.3609-.56,1.5886-1.1619,3.16-1.7808,4.7265-.0723.1835-.1233.314-.1653.423-.0312.07-.06.1349-.0989.2243q-.4939,1.1262-1.01,2.2421a152.5638,152.5638,0,0,1-9.2094,16.9551c-1.37,2.1894-2.7167,4.2589-4.06,6.2438a.9123.9123,0,0,1-1.6449-.71A582.5,582.5,0,0,1,513.7366,282.7178Zm-71.258,330.5654c.002-.2008.01-.4065.0222-.6106.01.1694.0321.4515.0576.74C442.5285,613.3605,442.5043,613.3241,442.4786,613.2832Zm4.5859,2.8178c.3265.0206.5882.056.586.1208C447.65,616.2284,447.3882,616.1726,447.0645,616.101ZM506.1376,495.11c-.2277,3.3627-.5638,6.7107-.9424,10.0589-.0286.2524-.0475.424-.06.5449-.0665.4654-.1322.931-.2017,1.3957q-.4212,2.8159-.9233,5.6184-1.7418,9.7193-4.44,19.2329-2.7606,9.7534-6.46,19.2083c-.4377,1.1217-.89,2.2374-1.3456,3.3519-.01-.0077-1.0633,2.4719-1.2734,2.9432q-2.13,4.7767-4.4747,9.454a259.3441,259.3441,0,0,1-20.24,33.5513c-1.9013,2.6851-3.8553,5.3308-5.8385,7.9557-.701.9277-.6469.8973-.5957.845-.0552.0616-.2233.2541-.67.7814-1.0045,1.1852-2.0781,2.2447-3.1392,3.3713-.0253.0265-.0538.0531-.0817.08.1063-.0646.22-.1331.35-.21-.1633.0969-.3171.2091-.4724.319a3.2769,3.2769,0,0,1-.76.4911c-.0386.0222-.0729.0512-.1125.0716-.994.5184-2.8437,1.3551-1.6875.9785-.6743.2349-1.3513.4588-2.045.6381.0347-.0088-.4853.1388-.9973.2647-.0453,0-.0791-.0011-.1292-.0015-.9534-.004-1.9879-.0765-2.9573-.0488-.36-.0817-.7012-.1613-.7956-.1863-.3654-.0978-.77-.2811-1.1507-.3643-.233-.102-.49-.21-.7436-.3241a2.4935,2.4935,0,0,0-.4155-.3608,2.03,2.03,0,0,1-.3672-.3808,9.9732,9.9732,0,0,0-.5548-.8917c-.01-.1472-.0255-.3186-.051-.5334-.0272-.2319-.0441-.3536-.0542-.409.03-.4581.07-.8646.0707-1.0166.0062-3.3717.2652-6.7516.5867-10.1061.0965-1.0079.2116-2.0134.3206-3.02.0013-.0118.0764-.6376.127-1.07.0527-.3876.1178-.873.1211-.8948q.2415-1.6132.5016-3.2233.8207-5.0171,1.8971-9.9838.39-1.8156.7805-3.6309,2.8137-13.0917,5.6272-26.1829L472.2313,461.8q6.0777-28.2791,12.1551-56.5582A185.3961,185.3961,0,0,1,494.09,421.58c1.3763,2.5954,2.6921,5.2242,3.9208,7.8928.2691.5847.5286,1.1733.7934,1.76l.08.1762.0088.0222c.6236,1.5719,1.2274,3.1487,1.7725,4.75,2.1206,6.2273,3.1731,12.7389,4.1647,19.2245.0534.3488.0873.5658.1081.6966q.1629,1.2474.3063,2.4972.2634,2.2871.4762,4.5795.525,5.6462.7312,11.3159A197.8881,197.8881,0,0,1,506.1376,495.11Z"/>
    <path id="fullLogo-4" data-name="fullLogo" d="M538.4862,358.83c-.1068.1253-.196.231-.2657.3147.0774-.0914.1554-.1822.2331-.2734Z"/>
    <path id="fullLogo-5" data-name="fullLogo" d="M454.5686,614.103c.2622-.1494.5133-.3166.76-.4911q.0642-.0537.1226-.109C454.7068,613.9545,454.5084,614.1133,454.5686,614.103Z"/>
    <path id="fullLogo-6" data-name="fullLogo" d="M255.96,210.4856,225.26,168.8879l16.9172-12.4844,4.3181,5.8509-10.6023,7.8244,8.4226,11.4126,8.3443-6.1567,4.1889,5.6786-8.3426,6.1567,9.45,12.8031,11.24-8.2943,4.3171,5.8518Z"/>
    <path id="fullLogo-7" data-name="fullLogo" d="M275.2183,152.4106c-2.4521-3.8219-5.059-5.8935-7.7414-4.3471-2.308,1.33-2.38,3.3671-.9773,5.7982,5.5,9.5449,20.4627,3.4971,28.12,16.7831,3.99,6.9232,2.5682,13.3946-4.1678,17.2776-7.1736,4.1343-12.2027,1.4651-17.2406-6.2675l6.0838-4.0061c3.0709,4.4631,5.1926,5.9827,7.9374,4.4007,2.37-1.3667,2.7009-3.9656.9738-6.9609-5.6434-9.7928-20.4548-3.9155-27.8973-16.8271-3.6668-6.3633-2.6719-12.4207,3.6281-16.0532,7.3608-4.2408,12.607-.6175,17.1791,6.3044Z"/>
    <path id="fullLogo-8" data-name="fullLogo" d="M314.3147,174.9339l-17.906-40.6556-7.1165,3.1351-2.9311-6.6555,21.4154-9.4316,2.93,6.6551-7.0506,3.1039,17.9068,40.6564Z"/>
    <path id="fullLogo-9" data-name="fullLogo" d="M334.3494,166.67l-3.0569-8.6928,7.4039-2.6033,3.0551,8.6946Z"/>
    <path id="fullLogo-10" data-name="fullLogo" d="M369.7816,155.9271l-.6188-3.3992c-.8261-4.5334.5889-9.6218,2.5366-14.5876,3.1588-7.9673,7.9523-15.7935,6.6744-22.805-.71-3.8966-2.1147-6.7865-5.3016-6.2068-2.8336.5168-3.5472,3.4281-2.7967,9.1467l-6.8712,1.2521c-1.6348-10.1668.972-15.5457,8.7626-16.966,8.2864-1.5109,12.2889,3.1755,13.7338,11.108,1.575,8.6419-4.3119,18.4971-7.3423,26.3677-1.0793,2.9043-1.89,5.6878-1.6577,7.7664l14.734-2.6846,1.2393,6.7992Z"/>
    <path id="fullLogo-11" data-name="fullLogo" d="M399.4957,125.07c-1.2252-18.4641,1.4695-26.7965,10.3781-27.3881,8.91-.5906,12.6808,7.3139,13.906,25.7779,1.2428,18.7515-1.5714,26.3707-10.408,26.957S400.74,143.8219,399.4957,125.07Zm16.5252-1.096c-.9545-14.3684-2.3415-20.05-5.7182-19.8259s-3.9287,6.0341-2.976,20.4033c.9721,14.6554,2.1692,19.6282,5.6162,19.3984C416.3918,143.7217,416.9912,138.63,416.0209,123.9736Z"/>
    <path id="fullLogo-12" data-name="fullLogo" d="M435.6433,149.2237l1.4186-51.6766,7.9172.2171-1.4186,51.6775Z"/>
    <path id="fullLogo-13" data-name="fullLogo" d="M475.2908,112.3224c-.1459-3.571-1.0213-5.9256-3.4524-6.2205-3.7881-.46-5.4211,4.6358-6.9521,16.0559l.1424.0175a8.4238,8.4238,0,0,1,7.2861-2.67c6.2191.755,8.8734,6.3721,7.6166,16.737-1.3975,11.508-6.8643,16.5024-13.94,15.6424-9.3638-1.1369-11.2816-10.4357-9.5115-25.0177,2.2729-18.7272,6.3018-28.61,16.2369-27.4047,6.2192.7554,9.3129,4.54,9.4237,12.604Zm-8.4463,33.1382c2.7158.3292,4.6072-2.7048,5.4668-9.7813.7189-5.9326-.2391-9.3854-3.3135-9.7589-1.7859-.2162-3.7564,1.0674-4.9975,3.5279C462.7435,140.3933,463.4132,145.0436,466.8445,145.4606Z"/>
    <path id="fullLogo-14" data-name="fullLogo" d="M210.3568,678.3978l29.1146-34.6263,5.691,4.7839c8.1984,6.8941,8.1835,13.9614-2.6034,26.789-9.57,11.3819-17.0595,15.7861-25.8846,8.3646Zm10.8316.6284c3.81,3.2027,8.33.6653,15.8731-8.3039,8.0288-9.5485,8.3127-13.5088,4.5026-16.7116l-.82-.6908-20.7615,24.692Z"/>
    <path id="fullLogo-15" data-name="fullLogo" d="M248.228,680.0984c9.3858-13.732,15.5083-17.3311,22.478-12.5674,6.9179,4.7276,5.84,11.7764-3.5455,25.5076-8.7451,12.7951-15.423,17.54-22.5492,12.6694S239.482,692.8927,248.228,680.0984Zm13.0034,8.8875c7.1815-10.5064,8.5553-14.5274,5.9555-16.3054-2.6534-1.8123-5.8483.9633-13.0289,11.4706-7.4663,10.9221-8.5263,14.9282-6.133,16.5647C250.3646,702.3154,253.7651,699.9081,261.2314,688.9859Z"/>
    <path id="fullLogo-16" data-name="fullLogo" d="M277.0289,724.7319l6.1866-31.093-.1108-.0616L268.5738,720.1l-5.1935-2.845,21.7363-39.6738,6.5751,3.6035-5.379,26.0754.1108.0615,12.23-22.3225,5.2488,2.8758-21.7354,39.6721Z"/>
    <path id="fullLogo-17" data-name="fullLogo" d="M323.2119,696.476l6.2578,2.67-13.3559,31.2891c-3.1412,7.3582-7.679,9.326-14.2268,6.532-6.489-2.77-8.2081-7.4092-5.0678-14.7674l13.355-31.2891,6.3158,2.6957-13.602,31.8682c-1.4844,3.477-.7866,5.2128,1.3571,6.1277s3.88.218,5.3639-3.2589Z"/>
    <path id="fullLogo-18" data-name="fullLogo" d="M326.898,746.0946l11.9751-36.9808-6.4723-2.0962,1.96-6.053,19.4783,6.307-1.96,6.0539-6.4134-2.076-11.9742,36.98Z"/>
    <path id="fullLogo-19" data-name="fullLogo" d="M369.0653,723.4566c.7049-3.9111.2681-6.7895-2.3722-7.3968-2.272-.5221-3.5314.74-4.0807,3.1342-2.1595,9.3937,11.0329,14.4281,8.0279,27.5062-1.5662,6.815-6.3317,10.1145-12.963,8.59-7.06-1.6224-8.6933-6.3281-7.3178-14.2857l6.286,1.0564c-.69,4.69-.2347,6.9276,2.4671,7.5481,2.3326.5352,4.0921-.9352,4.77-3.8813,2.2148-9.6389-10.7789-14.6926-7.8583-27.4016,1.4387-6.2622,5.6856-9.5529,11.8872-8.1273,7.2439,1.6647,8.448,7.1121,7.2554,14.2717Z"/>
    <path id="fullLogo-20" data-name="fullLogo" d="M394.1475,761.1793l4.1124-45.0475,18.32,1.6735-.5783,6.3369L404.52,723.0937l-1.1277,12.36,9.0334.8244-.5607,6.148-9.0343-.8236-1.8439,20.2008Z"/>
    <path id="fullLogo-21" data-name="fullLogo" d="M420.4321,740.5865c.0114-16.6324,3.04-23.0554,11.4811-23.05,8.3787.0053,11.4619,6.4327,11.45,23.0643-.0105,15.4977-2.8511,23.1811-11.482,23.1759S420.4224,756.0834,420.4321,740.5865Zm15.7491.0088c.0088-12.7248-1.1224-16.82-4.2715-16.8231-3.2133-.0018-4.2864,4.093-4.2961,16.82-.0088,13.2275,1.3746,17.1352,4.2724,17.1369C434.7205,757.7314,436.1724,753.8264,436.1812,740.5953Z"/>
    <path id="fullLogo-22" data-name="fullLogo" d="M468.5619,761.2707l-6.69-18.653-3.01.2927,1.8633,19.1241-6.8344.6644-4.3849-45.0175,9.0282-.879c7.9628-.776,12.4119,2.0189,13.267,10.7957.55,5.6443-1.1206,9.2874-4.1528,11.2921l8.3127,21.66Zm-8.1369-24.3984c3.3855-.3305,4.8392-2.308,4.3013-7.8258-.6047-6.2068-3.048-6.6015-6.3088-6.2833l-1.5047.1468,1.38,14.17Z"/>
    <path id="fullLogo-23" data-name="fullLogo" d="M516.5343,752.2865l-4.2574-10.6286L505,743.4632l1.2621,11.37-6.7887,1.6831-3.549-45.726,8.9279-2.2139,18.41,42.0416Zm-12.2115-14.9528,5.6874-1.41-7.74-19.437-.2444.0615Z"/>
    <path id="fullLogo-24" data-name="fullLogo" d="M547.7408,742.49l-17.1519-41.8517,6.8775-2.82c9.91-4.0606,16.1613-.7665,22.5149,14.7375,5.6373,13.7557,6.0618,22.4323-4.6055,26.8031Zm5.5828-9.3014c4.6055-1.8862,4.456-7.0673.0123-17.9095-4.7294-11.5409-8.1044-13.63-12.709-11.7422l-.99.4052,12.23,29.8441Z"/>
    <path id="fullLogo-25" data-name="fullLogo" d="M577.6623,729.4754l-20.2764-40.4367,6.1963-3.1061L583.8568,726.37Z"/>
    <path id="fullLogo-26" data-name="fullLogo" d="M593.3666,721.3736l-22.9325-38.9891,15.8555-9.3261,3.2265,5.4844-9.9378,5.8447,6.2929,10.6972,7.8188-4.5993,3.1307,5.3226-7.8188,4.5985,10.2841,17.4849Z"/>
    <path id="fullLogo-27" data-name="fullLogo" d="M616.8668,706.9859l-26.1106-36.9316,15.02-10.6189,3.673,5.1952-9.4131,6.6542,7.164,10.1338,7.4074-5.2366,3.5631,5.0406-7.4066,5.2365,11.7106,16.563Z"/>
    <path id="fullLogo-28" data-name="fullLogo" d="M639.1655,690.6418l-29.199-34.5533,14.0519-11.874,4.1071,4.86-8.8057,7.4417,8.0112,9.4808,6.9293-5.8562,3.9858,4.7154-6.93,5.8561,8.9877,10.6356,9.3357-7.889,4.108,4.86Z"/>
    <path id="fullLogo-29" data-name="fullLogo" d="M671.15,661.2521,654.055,651.2264l-2.1225,2.1551,13.6916,13.4824-4.8191,4.8937-32.2312-31.7417,6.3668-6.4635c5.6144-5.7014,10.8211-6.41,17.1061-.2206,4.0395,3.9788,5.0942,7.8469,4.0509,11.3291l20.2693,11.2957Zm-21.8892-13.5088c2.388-2.4232,2.2351-4.8727-1.7147-8.7627-4.4447-4.3761-6.5734-3.114-8.8717-.7787l-1.0617,1.0766,10.1452,9.9914Z"/>
    <path id="fullLogo-30" data-name="fullLogo" d="M682.6283,648.7443l-35-28.6488,11.6508-14.2339,4.9236,4.0316-7.302,8.9191,9.603,7.8609,5.7463-7.02,4.7768,3.91-5.7463,7.0189,10.7728,8.819,7.74-9.4571,4.9236,4.0307Z"/>
    <path id="fullLogo-31" data-name="fullLogo" d="M709.2,613.3165,678.8077,604.3l-.07.1055,25.0743,16.904-3.31,4.91-37.5082-25.2861,4.1906-6.2156,25.4725,7.7484.0694-.1037L671.6217,588.135l3.3452-4.9623,37.5082,25.2852Z"/>
    <path id="fullLogo-32" data-name="fullLogo" d="M714.4043,572.5027c8.4673,4.8727,13.14,10.2674,9.36,17.2477-4.4394,8.2-12.8478,5.8676-25.8117-1.1514-10.9143-5.91-19.5319-12.2238-14.9115-20.7545,3.8689-7.1481,10.4589-6.0873,18.4456-2.0487l-3.0595,5.65c-5.1064-2.4768-8.4155-2.98-9.6161-.7647-1.5293,2.8257,1.7578,5.7516,12.56,11.6016,11.7457,6.36,15.438,7.2132,16.9682,4.3866,1.35-2.4934-1.4643-5.2339-6.9943-8.5157Z"/>
    <path id="fullLogo-33" data-name="fullLogo" d="M732.6038,571.2336l-41.531-17.9323,7.2923-16.89,5.8421,2.5234-4.57,10.5846,11.3959,4.92,3.5965-8.3294,5.6671,2.4477L716.7,556.8863l12.7836,5.52,4.8455-11.22,5.842,2.5208Z"/>
  </g>
</svg>
