<?xml version="1.0" encoding="utf-8"?>
<!-- Generator: Adobe Illustrator 25.0.0, SVG Export Plug-In . SVG Version: 6.00 Build 0)  -->
<svg version="1.1" id="Layer_1" xmlns="http://www.w3.org/2000/svg" xmlns:xlink="http://www.w3.org/1999/xlink" x="0px" y="0px"
	 viewBox="0 0 864 274.01" style="enable-background:new 0 0 864 274.01;" xml:space="preserve">
<style type="text/css">
	.st0{fill:#B00000;}
	.st1{fill:#9D0000;}
	.st2{fill:#6D0000;}
	.st3{fill:#848484;}
</style>
<g>
	<g id="logoMark_1_">
		<a xlink:href="79.363137254902" >
			<polygon id="logoMark__x3C_PathItem_x3E__9_" class="st0" points="50.89,181.08 100.51,152.25 160.51,186.89 110.89,215.72 			
				"/>
		</a>
		<a xlink:href="81.5909803921569" >
			<polygon id="logoMark__x3C_PathItem_x3E__8_" class="st1" points="110.89,215.72 160.51,186.89 160.35,245.18 110.73,274.01 			
				"/>
		</a>
		<a xlink:href="81.5909803921569" >
			<polygon id="logoMark__x3C_PathItem_x3E__7_" class="st1" points="51.24,58.12 100.86,29.29 100.51,152.25 50.89,181.08 			"/>
		</a>
		<a xlink:href="79.363137254902" >
			<polygon id="logoMark__x3C_PathItem_x3E__6_" class="st0" points="0.51,28.84 50.13,0 100.86,29.29 51.24,58.12 			"/>
		</a>
		<a xlink:href="87.2192156862745" >
			<polygon id="logoMark__x3C_PathItem_x3E__5_" class="st2" points="51.24,58.12 50.89,181.08 110.89,215.72 110.73,274.01 
				50.73,239.37 0,210.08 0.17,151.8 0.51,28.84 			"/>
		</a>
	</g>
	<path id="fullLogo_31_" d="M166.01,44.77l21.57,0l0,68.85l39.12,0v18.28l-60.69,0L166.01,44.77z"/>
	<path id="fullLogo_30_" d="M261.79,104.48l21.69,0c0.97,8.77,6.7,12.43,17.06,12.43c7.07,0,14.01-2.56,14.01-9.14
		c0-6.95-7.07-8.41-19.01-11.33c-15.11-3.53-31.08-8.16-31.08-26.44c0-18.65,15.11-26.81,34.61-26.81
		c18.89,0,33.51,8.53,34.37,26.81l-21.08,0c-0.85-6.7-5.97-10.48-14.01-10.48c-7.56,0-12.55,3.29-12.55,8.16
		c0,6.09,6.7,7.56,19.74,10.48c16.21,3.78,30.83,8.77,30.83,27.42c0,18.28-15.6,28.39-35.71,28.39
		C277.52,133.97,262.28,123.74,261.79,104.48z"/>
	<path id="fullLogo_29_" d="M411.13,128.49c-6.22,3.53-13.53,5.48-21.94,5.48c-26.32,0-42.9-19.38-42.9-45.46
		c0-26.08,16.57-45.46,42.9-45.46c26.45,0,43.02,19.38,43.02,45.46c0,12.06-3.53,22.67-9.99,30.59l9.87,9.26l-9.99,10.6
		L411.13,128.49z M397.11,114.96l-7.92-7.68l9.99-10.36l8.04,7.68c2.07-4.51,3.05-9.99,3.05-16.09c0-15.84-6.82-28.03-20.96-28.03
		c-14.01,0-21.08,12.19-21.08,28.03c0,15.84,7.07,27.91,21.08,27.91C392.24,116.43,394.8,115.94,397.11,114.96z"/>
	<path id="fullLogo_28_" d="M444.43,101.19V44.77l21.57,0v57.16c0,8.53,4.39,14.26,14.99,14.26c9.99,0,14.75-6.09,14.75-14.62
		l0-56.79l21.57,0v56.42c0,20.11-12.07,32.3-36.32,32.3C456.61,133.49,444.43,121.54,444.43,101.19z"/>
	<path id="fullLogo_27_" d="M554.31,44.77l22.18,0l31.44,87.13l-22.67,0l-5.12-15.72l-30.47,0l-5,15.72h-21.69L554.31,44.77z
		 M575.14,100.7l-6.58-21.08c-1.46-4.51-3.41-12.31-3.41-12.31h-0.24c0,0-2.07,7.8-3.53,12.31l-6.7,21.08L575.14,100.7z"/>
	<path id="fullLogo_26_" d="M617.73,44.77l41.68,0c17.31,0,30.47,8.9,30.47,25.1c0,10.12-5,17.55-15.11,21.08v0.37
		c7.56,2.56,11.46,7.31,12.68,15.96c1.83,11.46,0.61,22.42,3.66,23.52v1.1l-20.96,0c-2.32-1.34-1.95-11.58-3.29-20.23
		c-1.1-8.04-5.24-12.43-14.5-12.43l-13.04,0v32.66l-21.57,0V44.77z M655.51,83.28c8.53,0,12.92-4.02,12.92-10.6
		c0-6.34-4.14-10.85-12.43-10.85l-16.7,0v21.45H655.51z"/>
	<path id="fullLogo_25_" d="M704.88,44.77l66.05,0v17.79l-44.48,0v15.6l38.14,0v16.82l-38.14,0v18.65l45.21,0v18.28l-66.78,0V44.77z
		"/>
	<path id="fullLogo_24_" d="M786.49,44.77l37.17,0c24.13,0,40.34,17.43,40.34,44.12c0,15.36-5.36,27.66-15.11,35.1
		c-6.82,5.12-15.6,7.92-26.57,7.92l-35.83,0L786.49,44.77z M820.74,113.74c14.14,0,21.45-8.9,21.45-24.86
		c0-15.84-7.68-26.08-21.2-26.08l-12.92,0l0,50.94L820.74,113.74z"/>
	<path id="fullLogo_23_" class="st3" d="M223.65,156.86l30.51,0c7.7,0,13.65,2.53,17.35,7.02c3.22,3.8,5.17,8.48,5.17,14.23
		c0,13.36-7.8,21.45-23.49,21.45l-19.5,0v29.83h-10.04L223.65,156.86z M233.69,191.47h18.52c9.85,0,14.53-4.97,14.53-13.06
		c0-8.48-5.17-12.87-14.14-12.87l-18.91,0L233.69,191.47z"/>
	<path id="fullLogo_22_" class="st3" d="M296.47,156.86h33.93c12.97,0,21.74,7.99,21.74,19.99c0,8.87-3.61,15.11-13.26,18.13v0.29
		c8.19,2.44,10.53,7.31,11.21,17.74c0.88,11.41,1.85,14.92,3.32,15.89v0.49l-10.63,0c-1.66-1.36-1.85-4.68-2.63-16.28
		c-0.68-10.24-4.97-13.94-14.43-13.94h-19.3v30.22l-9.94,0L296.47,156.86z M306.42,191.18l20.77,0c9.85,0,14.72-4.97,14.72-12.87
		c0-8.48-4-12.87-14.23-12.87l-21.25,0L306.42,191.18z"/>
	<path id="fullLogo_21_" class="st3" d="M371.73,193.12c0-21.74,13.55-37.83,35.49-37.83c21.84,0,35.58,16.09,35.58,37.83
		c0,21.64-13.75,37.83-35.58,37.83C385.29,230.95,371.73,214.77,371.73,193.12z M432.47,193.12c0-16.67-8.77-29.25-25.25-29.25
		c-16.48,0-25.35,12.58-25.35,29.25c0,16.57,8.87,29.05,25.35,29.05C423.7,222.18,432.47,209.7,432.47,193.12z"/>
	<path id="fullLogo_20_" class="st3" d="M459.28,206.97v-1.56h9.75v1.27c0,12.19,4,15.89,12.09,15.89c7.12,0,11.21-3.7,11.21-12.38
		l0-53.33h9.94v53.91c0,5.75-1.66,10.72-5.17,14.23c-3.51,3.61-8.87,5.85-16.09,5.85C467.47,230.85,459.28,223.54,459.28,206.97z"/>
	<path id="fullLogo_19_" class="st3" d="M526.06,156.86l51.57,0v8.77l-41.63,0v21.94l37.63,0v8.29l-37.63,0v24.47l42.7,0v9.07
		l-52.64,0V156.86z"/>
	<path id="fullLogo_18_" class="st3" d="M596.54,193.12c0-21.35,12.87-37.83,34.41-37.83c8.48,0,15.31,2.44,20.18,6.43
		c5.17,4.19,8.29,10.14,9.26,17.06h-9.94c-1.66-8.87-8.58-14.82-19.69-14.82c-15.4,0-24.08,12.48-24.08,29.15
		c0,17.35,9.55,29.05,24.18,29.05c13.16,0,19.5-8.87,20.38-19.21h9.94c-0.1,7.21-3.51,15.21-8.68,20.18
		c-5.07,5.07-12.48,7.7-21.84,7.7C609.99,230.85,596.54,215.06,596.54,193.12z"/>
	<path id="fullLogo_17_" class="st3" d="M675.8,156.86l57.71,0v8.77h-23.89v63.76l-10.04,0l0-63.76l-23.79,0L675.8,156.86z"/>
	<path id="fullLogo_16_" class="st3" d="M747.84,205.9h9.85c1.17,10.92,8.38,16.96,21.55,16.96c9.65,0,16.67-4.29,16.67-13.06
		c0-9.46-8.38-11.7-21.06-14.53c-12.97-2.73-23.98-6.43-23.98-20.37c0-12.19,10.24-19.4,25.15-19.4c17.84,0,25.84,8.97,27.59,21.35
		l-9.65,0c-1.27-8.77-7.6-13.55-17.84-13.55c-9.55,0-15.79,3.9-15.79,11.11c0,7.9,7.9,10.14,18.82,12.38
		c14.04,2.83,26.81,6.43,26.81,22.62c0,13.75-11.31,21.45-27,21.45C758.66,230.85,748.62,219.74,747.84,205.9z"/>
</g>
</svg>
